<svg width="438" height="406" viewBox="0 0 438 406" fill="none" xmlns="http://www.w3.org/2000/svg">
<path fill-rule="evenodd" clip-rule="evenodd" d="M26 2C24.7213 2 23.4666 2.09992 22.2431 2.29219C21.6975 2.37793 21.1857 2.00515 21.1 1.45956C21.0142 0.913974 21.387 0.40218 21.9326 0.316439C23.2584 0.108082 24.6169 0 26 0H30.0632C30.6154 0 31.0632 0.447715 31.0632 1C31.0632 1.55228 30.6154 2 30.0632 2H26ZM41.2526 1C41.2526 0.447715 41.7003 0 42.2526 0H50.3789C50.9312 0 51.3789 0.447715 51.3789 1C51.3789 1.55228 50.9312 2 50.3789 2H42.2526C41.7003 2 41.2526 1.55228 41.2526 1ZM61.5684 1C61.5684 0.447715 62.0161 0 62.5684 0H70.6947C71.247 0 71.6947 0.447715 71.6947 1C71.6947 1.55228 71.247 2 70.6947 2H62.5684C62.0161 2 61.5684 1.55228 61.5684 1ZM81.8842 1C81.8842 0.447715 82.3319 0 82.8842 0H91.0105C91.5628 0 92.0105 0.447715 92.0105 1C92.0105 1.55228 91.5628 2 91.0105 2H82.8842C82.3319 2 81.8842 1.55228 81.8842 1ZM102.2 1C102.2 0.447715 102.648 0 103.2 0H111.326C111.879 0 112.326 0.447715 112.326 1C112.326 1.55228 111.879 2 111.326 2H103.2C102.648 2 102.2 1.55228 102.2 1ZM122.516 1C122.516 0.447715 122.964 0 123.516 0H131.642C132.194 0 132.642 0.447715 132.642 1C132.642 1.55228 132.194 2 131.642 2H123.516C122.964 2 122.516 1.55228 122.516 1ZM142.832 1C142.832 0.447715 143.279 0 143.832 0H151.958C152.51 0 152.958 0.447715 152.958 1C152.958 1.55228 152.51 2 151.958 2H143.832C143.279 2 142.832 1.55228 142.832 1ZM163.147 1C163.147 0.447715 163.595 0 164.147 0H172.274C172.826 0 173.274 0.447715 173.274 1C173.274 1.55228 172.826 2 172.274 2H164.147C163.595 2 163.147 1.55228 163.147 1ZM183.463 1C183.463 0.447715 183.911 0 184.463 0H192.589C193.142 0 193.589 0.447715 193.589 1C193.589 1.55228 193.142 2 192.589 2H184.463C183.911 2 183.463 1.55228 183.463 1ZM203.779 1C203.779 0.447715 204.227 0 204.779 0H212.905C213.458 0 213.905 0.447715 213.905 1C213.905 1.55228 213.458 2 212.905 2H204.779C204.227 2 203.779 1.55228 203.779 1ZM224.095 1C224.095 0.447715 224.542 0 225.095 0H233.221C233.773 0 234.221 0.447715 234.221 1C234.221 1.55228 233.773 2 233.221 2H225.095C224.542 2 224.095 1.55228 224.095 1ZM244.411 1C244.411 0.447715 244.858 0 245.411 0H253.537C254.089 0 254.537 0.447715 254.537 1C254.537 1.55228 254.089 2 253.537 2H245.411C244.858 2 244.411 1.55228 244.411 1ZM264.726 1C264.726 0.447715 265.174 0 265.726 0H273.853C274.405 0 274.853 0.447715 274.853 1C274.853 1.55228 274.405 2 273.853 2H265.726C265.174 2 264.726 1.55228 264.726 1ZM285.042 1C285.042 0.447715 285.49 0 286.042 0H294.168C294.721 0 295.168 0.447715 295.168 1C295.168 1.55228 294.721 2 294.168 2H286.042C285.49 2 285.042 1.55228 285.042 1ZM305.358 1C305.358 0.447715 305.806 0 306.358 0H314.484C315.036 0 315.484 0.447715 315.484 1C315.484 1.55228 315.036 2 314.484 2H306.358C305.806 2 305.358 1.55228 305.358 1ZM325.674 1C325.674 0.447715 326.121 0 326.674 0H334.8C335.352 0 335.8 0.447715 335.8 1C335.8 1.55228 335.352 2 334.8 2H326.674C326.121 2 325.674 1.55228 325.674 1ZM345.99 1C345.99 0.447715 346.437 0 346.99 0H355.116C355.668 0 356.116 0.447715 356.116 1C356.116 1.55228 355.668 2 355.116 2H346.99C346.437 2 345.99 1.55228 345.99 1ZM366.305 1C366.305 0.447715 366.753 0 367.305 0H375.432C375.984 0 376.432 0.447715 376.432 1C376.432 1.55228 375.984 2 375.432 2H367.305C366.753 2 366.305 1.55228 366.305 1ZM386.621 1C386.621 0.447715 387.069 0 387.621 0H395.747C396.3 0 396.747 0.447715 396.747 1C396.747 1.55228 396.3 2 395.747 2H387.621C387.069 2 386.621 1.55228 386.621 1ZM406.937 1C406.937 0.447715 407.385 0 407.937 0H412C413.383 0 414.742 0.108082 416.067 0.316438C416.613 0.40218 416.986 0.913974 416.9 1.45956C416.814 2.00515 416.303 2.37793 415.757 2.29219C414.533 2.09992 413.279 2 412 2H407.937C407.385 2 406.937 1.55228 406.937 1ZM12.1131 5.18456C12.4381 5.6311 12.3395 6.25655 11.893 6.58154C9.85717 8.06315 8.06315 9.85717 6.58154 11.893C6.25655 12.3395 5.6311 12.4381 5.18456 12.1131C4.73801 11.7881 4.63947 11.1626 4.96446 10.7161C6.56893 8.51148 8.51148 6.56893 10.7161 4.96446C11.1626 4.63947 11.7881 4.73801 12.1131 5.18456ZM425.887 5.18456C426.212 4.73801 426.837 4.63947 427.284 4.96446C429.489 6.56893 431.431 8.51148 433.036 10.7161C433.361 11.1626 433.262 11.7881 432.815 12.1131C432.369 12.4381 431.743 12.3395 431.418 11.893C429.937 9.85717 428.143 8.06315 426.107 6.58154C425.66 6.25655 425.562 5.6311 425.887 5.18456ZM436.54 21.1C437.086 21.0142 437.598 21.387 437.684 21.9326C437.892 23.2584 438 24.6169 438 26V29.9333C438 30.4856 437.552 30.9333 437 30.9333C436.448 30.9333 436 30.4856 436 29.9333V26C436 24.7213 435.9 23.4666 435.708 22.2431C435.622 21.6975 435.995 21.1857 436.54 21.1ZM1.45956 21.1C2.00515 21.1857 2.37793 21.6975 2.29219 22.2431C2.09992 23.4666 2 24.7213 2 26V29.9333C2 30.4856 1.55228 30.9333 1 30.9333C0.447715 30.9333 0 30.4856 0 29.9333V26C0 24.6169 0.108082 23.2584 0.316439 21.9326C0.40218 21.387 0.913974 21.0142 1.45956 21.1ZM1 40.7333C1.55228 40.7333 2 41.181 2 41.7333V49.6C2 50.1523 1.55228 50.6 1 50.6C0.447715 50.6 0 50.1523 0 49.6V41.7333C0 41.181 0.447715 40.7333 1 40.7333ZM437 40.7333C437.552 40.7333 438 41.181 438 41.7333V49.6C438 50.1523 437.552 50.6 437 50.6C436.448 50.6 436 50.1523 436 49.6V41.7333C436 41.181 436.448 40.7333 437 40.7333ZM1 60.4C1.55228 60.4 2 60.8477 2 61.4V69.2667C2 69.8189 1.55228 70.2667 1 70.2667C0.447715 70.2667 0 69.8189 0 69.2667V61.4C0 60.8477 0.447715 60.4 1 60.4ZM437 60.4C437.552 60.4 438 60.8477 438 61.4V69.2667C438 69.819 437.552 70.2667 437 70.2667C436.448 70.2667 436 69.819 436 69.2667V61.4C436 60.8477 436.448 60.4 437 60.4ZM1 80.0666C1.55228 80.0666 2 80.5144 2 81.0666V88.9333C2 89.4856 1.55228 89.9333 1 89.9333C0.447715 89.9333 0 89.4856 0 88.9333V81.0666C0 80.5144 0.447715 80.0666 1 80.0666ZM437 80.0667C437.552 80.0667 438 80.5144 438 81.0667V88.9333C438 89.4856 437.552 89.9333 437 89.9333C436.448 89.9333 436 89.4856 436 88.9333V81.0667C436 80.5144 436.448 80.0667 437 80.0667ZM1 99.7333C1.55228 99.7333 2 100.181 2 100.733V108.6C2 109.152 1.55228 109.6 1 109.6C0.447715 109.6 0 109.152 0 108.6V100.733C0 100.181 0.447715 99.7333 1 99.7333ZM437 99.7333C437.552 99.7333 438 100.181 438 100.733V108.6C438 109.152 437.552 109.6 437 109.6C436.448 109.6 436 109.152 436 108.6V100.733C436 100.181 436.448 99.7333 437 99.7333ZM1 119.4C1.55228 119.4 2 119.848 2 120.4V128.267C2 128.819 1.55228 129.267 1 129.267C0.447715 129.267 0 128.819 0 128.267V120.4C0 119.848 0.447715 119.4 1 119.4ZM437 119.4C437.552 119.4 438 119.848 438 120.4V128.267C438 128.819 437.552 129.267 437 129.267C436.448 129.267 436 128.819 436 128.267V120.4C436 119.848 436.448 119.4 437 119.4ZM1 139.067C1.55228 139.067 2 139.514 2 140.067V147.933C2 148.486 1.55228 148.933 1 148.933C0.447715 148.933 0 148.486 0 147.933V140.067C0 139.514 0.447715 139.067 1 139.067ZM437 139.067C437.552 139.067 438 139.514 438 140.067V147.933C438 148.486 437.552 148.933 437 148.933C436.448 148.933 436 148.486 436 147.933V140.067C436 139.514 436.448 139.067 437 139.067ZM1 158.733C1.55228 158.733 2 159.181 2 159.733V167.6C2 168.152 1.55228 168.6 1 168.6C0.447715 168.6 0 168.152 0 167.6V159.733C0 159.181 0.447715 158.733 1 158.733ZM437 158.733C437.552 158.733 438 159.181 438 159.733V167.6C438 168.152 437.552 168.6 437 168.6C436.448 168.6 436 168.152 436 167.6V159.733C436 159.181 436.448 158.733 437 158.733ZM1 178.4C1.55228 178.4 2 178.848 2 179.4V187.267C2 187.819 1.55228 188.267 1 188.267C0.447715 188.267 0 187.819 0 187.267V179.4C0 178.848 0.447715 178.4 1 178.4ZM437 178.4C437.552 178.4 438 178.848 438 179.4V187.267C438 187.819 437.552 188.267 437 188.267C436.448 188.267 436 187.819 436 187.267V179.4C436 178.848 436.448 178.4 437 178.4ZM1 198.067C1.55228 198.067 2 198.514 2 199.067V206.933C2 207.486 1.55228 207.933 1 207.933C0.447715 207.933 0 207.486 0 206.933V199.067C0 198.514 0.447715 198.067 1 198.067ZM437 198.067C437.552 198.067 438 198.514 438 199.067V206.933C438 207.486 437.552 207.933 437 207.933C436.448 207.933 436 207.486 436 206.933V199.067C436 198.514 436.448 198.067 437 198.067ZM1 217.733C1.55228 217.733 2 218.181 2 218.733V226.6C2 227.152 1.55228 227.6 1 227.6C0.447715 227.6 0 227.152 0 226.6V218.733C0 218.181 0.447715 217.733 1 217.733ZM437 217.733C437.552 217.733 438 218.181 438 218.733V226.6C438 227.152 437.552 227.6 437 227.6C436.448 227.6 436 227.152 436 226.6V218.733C436 218.181 436.448 217.733 437 217.733ZM1 237.4C1.55228 237.4 2 237.848 2 238.4V246.267C2 246.819 1.55228 247.267 1 247.267C0.447715 247.267 0 246.819 0 246.267V238.4C0 237.848 0.447715 237.4 1 237.4ZM437 237.4C437.552 237.4 438 237.848 438 238.4V246.267C438 246.819 437.552 247.267 437 247.267C436.448 247.267 436 246.819 436 246.267V238.4C436 237.848 436.448 237.4 437 237.4ZM1 257.067C1.55228 257.067 2 257.514 2 258.067V265.933C2 266.486 1.55228 266.933 1 266.933C0.447715 266.933 0 266.486 0 265.933V258.067C0 257.514 0.447715 257.067 1 257.067ZM437 257.067C437.552 257.067 438 257.514 438 258.067V265.933C438 266.486 437.552 266.933 437 266.933C436.448 266.933 436 266.486 436 265.933V258.067C436 257.514 436.448 257.067 437 257.067ZM1 276.733C1.55228 276.733 2 277.181 2 277.733V285.6C2 286.152 1.55228 286.6 1 286.6C0.447715 286.6 0 286.152 0 285.6V277.733C0 277.181 0.447715 276.733 1 276.733ZM437 276.733C437.552 276.733 438 277.181 438 277.733V285.6C438 286.152 437.552 286.6 437 286.6C436.448 286.6 436 286.152 436 285.6V277.733C436 277.181 436.448 276.733 437 276.733ZM1 296.4C1.55228 296.4 2 296.848 2 297.4V305.267C2 305.819 1.55228 306.267 1 306.267C0.447715 306.267 0 305.819 0 305.267V297.4C0 296.848 0.447715 296.4 1 296.4ZM437 296.4C437.552 296.4 438 296.848 438 297.4V305.267C438 305.819 437.552 306.267 437 306.267C436.448 306.267 436 305.819 436 305.267V297.4C436 296.848 436.448 296.4 437 296.4ZM1 316.067C1.55228 316.067 2 316.514 2 317.067V324.933C2 325.486 1.55228 325.933 1 325.933C0.447715 325.933 0 325.486 0 324.933V317.067C0 316.514 0.447715 316.067 1 316.067ZM437 316.067C437.552 316.067 438 316.514 438 317.067V324.933C438 325.486 437.552 325.933 437 325.933C436.448 325.933 436 325.486 436 324.933V317.067C436 316.514 436.448 316.067 437 316.067ZM1 335.733C1.55228 335.733 2 336.181 2 336.733V344.6C2 345.152 1.55228 345.6 1 345.6C0.447715 345.6 0 345.152 0 344.6V336.733C0 336.181 0.447715 335.733 1 335.733ZM437 335.733C437.552 335.733 438 336.181 438 336.733V344.6C438 345.152 437.552 345.6 437 345.6C436.448 345.6 436 345.152 436 344.6V336.733C436 336.181 436.448 335.733 437 335.733ZM1 355.4C1.55228 355.4 2 355.848 2 356.4V364.267C2 364.819 1.55228 365.267 1 365.267C0.447715 365.267 0 364.819 0 364.267V356.4C0 355.848 0.447715 355.4 1 355.4ZM437 355.4C437.552 355.4 438 355.848 438 356.4V364.267C438 364.819 437.552 365.267 437 365.267C436.448 365.267 436 364.819 436 364.267V356.4C436 355.848 436.448 355.4 437 355.4ZM437 375.067C437.552 375.067 438 375.514 438 376.067V380C438 381.383 437.892 382.742 437.684 384.067C437.598 384.613 437.086 384.986 436.54 384.9C435.995 384.814 435.622 384.302 435.708 383.757C435.9 382.533 436 381.279 436 380V376.067C436 375.514 436.448 375.067 437 375.067ZM1 375.067C1.55228 375.067 2 375.514 2 376.067V380C2 381.279 2.09992 382.533 2.29219 383.757C2.37793 384.302 2.00515 384.814 1.45956 384.9C0.913974 384.986 0.40218 384.613 0.316439 384.067C0.108082 382.742 0 381.383 0 380V376.067C0 375.514 0.447715 375.067 1 375.067ZM5.18456 393.887C5.6311 393.562 6.25655 393.66 6.58154 394.107C8.06315 396.143 9.85717 397.937 11.893 399.418C12.3395 399.743 12.4381 400.369 12.1131 400.815C11.7881 401.262 11.1626 401.361 10.7161 401.036C8.51148 399.431 6.56893 397.489 4.96445 395.284C4.63947 394.837 4.73801 394.212 5.18456 393.887ZM432.815 393.887C433.262 394.212 433.361 394.837 433.036 395.284C431.431 397.489 429.489 399.431 427.284 401.036C426.837 401.361 426.212 401.262 425.887 400.815C425.562 400.369 425.66 399.743 426.107 399.418C428.143 397.937 429.937 396.143 431.418 394.107C431.743 393.66 432.369 393.562 432.815 393.887ZM21.1 404.54C21.1857 403.995 21.6975 403.622 22.2431 403.708C23.4666 403.9 24.7213 404 26 404H30.0631C30.6154 404 31.0631 404.448 31.0631 405C31.0631 405.552 30.6154 406 30.0631 406H26C24.6169 406 23.2584 405.892 21.9326 405.684C21.387 405.598 21.0142 405.086 21.1 404.54ZM416.9 404.54C416.986 405.086 416.613 405.598 416.067 405.684C414.742 405.892 413.383 406 412 406H407.937C407.385 406 406.937 405.552 406.937 405C406.937 404.448 407.385 404 407.937 404H412C413.279 404 414.533 403.9 415.757 403.708C416.302 403.622 416.814 403.995 416.9 404.54ZM41.2526 405C41.2526 404.448 41.7003 404 42.2526 404H50.3789C50.9312 404 51.3789 404.448 51.3789 405C51.3789 405.552 50.9312 406 50.3789 406H42.2526C41.7003 406 41.2526 405.552 41.2526 405ZM61.5684 405C61.5684 404.448 62.0161 404 62.5684 404H70.6947C71.247 404 71.6947 404.448 71.6947 405C71.6947 405.552 71.247 406 70.6947 406H62.5684C62.0161 406 61.5684 405.552 61.5684 405ZM81.8842 405C81.8842 404.448 82.3319 404 82.8842 404H91.0105C91.5628 404 92.0105 404.448 92.0105 405C92.0105 405.552 91.5628 406 91.0105 406H82.8842C82.3319 406 81.8842 405.552 81.8842 405ZM102.2 405C102.2 404.448 102.648 404 103.2 404H111.326C111.879 404 112.326 404.448 112.326 405C112.326 405.552 111.879 406 111.326 406H103.2C102.648 406 102.2 405.552 102.2 405ZM122.516 405C122.516 404.448 122.964 404 123.516 404H131.642C132.194 404 132.642 404.448 132.642 405C132.642 405.552 132.194 406 131.642 406H123.516C122.964 406 122.516 405.552 122.516 405ZM142.832 405C142.832 404.448 143.279 404 143.832 404H151.958C152.51 404 152.958 404.448 152.958 405C152.958 405.552 152.51 406 151.958 406H143.832C143.279 406 142.832 405.552 142.832 405ZM163.147 405C163.147 404.448 163.595 404 164.147 404H172.274C172.826 404 173.274 404.448 173.274 405C173.274 405.552 172.826 406 172.274 406H164.147C163.595 406 163.147 405.552 163.147 405ZM183.463 405C183.463 404.448 183.911 404 184.463 404H192.589C193.142 404 193.589 404.448 193.589 405C193.589 405.552 193.142 406 192.589 406H184.463C183.911 406 183.463 405.552 183.463 405ZM203.779 405C203.779 404.448 204.227 404 204.779 404H212.905C213.458 404 213.905 404.448 213.905 405C213.905 405.552 213.458 406 212.905 406H204.779C204.227 406 203.779 405.552 203.779 405ZM224.095 405C224.095 404.448 224.542 404 225.095 404H233.221C233.773 404 234.221 404.448 234.221 405C234.221 405.552 233.773 406 233.221 406H225.095C224.542 406 224.095 405.552 224.095 405ZM244.411 405C244.411 404.448 244.858 404 245.411 404H253.537C254.089 404 254.537 404.448 254.537 405C254.537 405.552 254.089 406 253.537 406H245.411C244.858 406 244.411 405.552 244.411 405ZM264.726 405C264.726 404.448 265.174 404 265.726 404H273.853C274.405 404 274.853 404.448 274.853 405C274.853 405.552 274.405 406 273.853 406H265.726C265.174 406 264.726 405.552 264.726 405ZM285.042 405C285.042 404.448 285.49 404 286.042 404H294.168C294.721 404 295.168 404.448 295.168 405C295.168 405.552 294.721 406 294.168 406H286.042C285.49 406 285.042 405.552 285.042 405ZM305.358 405C305.358 404.448 305.806 404 306.358 404H314.484C315.036 404 315.484 404.448 315.484 405C315.484 405.552 315.036 406 314.484 406H306.358C305.806 406 305.358 405.552 305.358 405ZM325.674 405C325.674 404.448 326.121 404 326.674 404H334.8C335.352 404 335.8 404.448 335.8 405C335.8 405.552 335.352 406 334.8 406H326.674C326.121 406 325.674 405.552 325.674 405ZM345.989 405C345.989 404.448 346.437 404 346.989 404H355.116C355.668 404 356.116 404.448 356.116 405C356.116 405.552 355.668 406 355.116 406H346.989C346.437 406 345.989 405.552 345.989 405ZM366.305 405C366.305 404.448 366.753 404 367.305 404H375.432C375.984 404 376.432 404.448 376.432 405C376.432 405.552 375.984 406 375.432 406H367.305C366.753 406 366.305 405.552 366.305 405ZM386.621 405C386.621 404.448 387.069 404 387.621 404H395.747C396.3 404 396.747 404.448 396.747 405C396.747 405.552 396.3 406 395.747 406H387.621C387.069 406 386.621 405.552 386.621 405Z" fill="white"/>
</svg>
