<svg width="20" height="20" viewBox="0 0 20 20" fill="none" xmlns="http://www.w3.org/2000/svg">
<path d="M16.1527 12.2071C15.7598 11.8266 15.2859 11.6231 14.7837 11.6231C14.2855 11.6231 13.8075 11.8228 13.3985 12.2034L12.1186 13.3901C12.0133 13.3374 11.908 13.2884 11.8067 13.2394C11.6609 13.1716 11.5232 13.1076 11.4057 13.0397C10.2068 12.3314 9.1173 11.4084 8.07232 10.2141C7.56604 9.61882 7.22581 9.11773 6.97874 8.60911C7.31087 8.32655 7.61869 8.03268 7.91841 7.75011C8.03182 7.64462 8.14523 7.53536 8.25864 7.42987C9.1092 6.63869 9.1092 5.61392 8.25864 4.82273L7.15291 3.79419C7.02735 3.6774 6.89774 3.55684 6.77623 3.43627C6.53321 3.20269 6.27804 2.96156 6.01477 2.73551C5.62189 2.37383 5.15206 2.18168 4.65792 2.18168C4.16378 2.18168 3.68585 2.37383 3.28082 2.73551C3.27677 2.73928 3.27677 2.73928 3.27272 2.74305L1.89562 4.03531C1.37718 4.51756 1.08151 5.1053 1.0167 5.78722C0.919494 6.88735 1.26782 7.91212 1.53514 8.58274C2.19129 10.2292 3.17146 11.755 4.63362 13.3901C6.40765 15.3606 8.54216 16.9165 10.9804 18.0129C11.912 18.4236 13.1555 18.9096 14.5447 18.9925C14.6298 18.9962 14.7189 19 14.7999 19C15.7355 19 16.5213 18.6873 17.1369 18.0657C17.1409 18.0581 17.149 18.0543 17.1531 18.0468C17.3637 17.8095 17.6067 17.5947 17.8619 17.3649C18.0361 17.2104 18.2143 17.0484 18.3884 16.8789C18.7894 16.4908 19 16.0387 19 15.5753C19 15.1081 18.7854 14.6598 18.3763 14.283L16.1527 12.2071ZM17.6027 16.1743C17.5986 16.1781 17.5986 16.1743 17.6027 16.1743C17.4447 16.3326 17.2827 16.4757 17.1085 16.634C16.8453 16.8676 16.578 17.1125 16.3268 17.3875C15.9178 17.7944 15.4358 17.9865 14.8039 17.9865C14.7432 17.9865 14.6784 17.9865 14.6176 17.9828C13.4147 17.9112 12.2968 17.4741 11.4584 17.1012C9.1659 16.0689 7.15291 14.6033 5.48013 12.7459C4.09898 11.1974 3.17551 9.76575 2.56392 8.22859C2.18724 7.29047 2.04953 6.55957 2.11028 5.87011C2.15079 5.42931 2.33305 5.06385 2.66922 4.75115L4.05038 3.46642C4.24884 3.29311 4.45946 3.19892 4.66602 3.19892C4.92119 3.19892 5.12776 3.34209 5.25737 3.46265C5.26142 3.46642 5.26547 3.47018 5.26952 3.47395C5.51659 3.6887 5.7515 3.91099 5.99857 4.14834C6.12413 4.2689 6.25374 4.38946 6.38335 4.51379L7.48908 5.54233C7.91841 5.94169 7.91841 6.31091 7.48908 6.71027C7.37162 6.81953 7.25821 6.92879 7.14076 7.03428C6.80053 7.35829 6.47651 7.65969 6.12413 7.95356C6.11603 7.9611 6.10793 7.96486 6.10388 7.9724C5.75555 8.29641 5.82036 8.61288 5.89326 8.82763C5.89731 8.83893 5.90136 8.85024 5.90541 8.86154C6.19299 9.50956 6.59802 10.1199 7.21366 10.847L7.21771 10.8508C8.33559 12.1318 9.51423 13.1302 10.8144 13.895C10.9804 13.9929 11.1506 14.0721 11.3126 14.1474C11.4584 14.2152 11.5961 14.2793 11.7135 14.3471C11.7297 14.3546 11.7459 14.3659 11.7621 14.3735C11.8999 14.4375 12.0295 14.4676 12.1631 14.4676C12.4993 14.4676 12.7099 14.2717 12.7788 14.2077L14.164 12.9192C14.3017 12.7911 14.5204 12.6366 14.7756 12.6366C15.0267 12.6366 15.2333 12.7836 15.3588 12.9116C15.3629 12.9154 15.3629 12.9154 15.3669 12.9192L17.5986 14.9951C18.0158 15.3794 18.0158 15.775 17.6027 16.1743Z" fill="#CCCCCC"/>
<path fill-rule="evenodd" clip-rule="evenodd" d="M6.77623 3.43627C6.89774 3.55684 7.02735 3.6774 7.15291 3.79419L8.25864 4.82273C9.1092 5.61392 9.1092 6.63869 8.25864 7.42987C8.20193 7.48262 8.14523 7.5363 8.08853 7.58999C8.03182 7.64368 7.97512 7.69737 7.91841 7.75011C7.8895 7.77737 7.86052 7.80473 7.83145 7.83217C7.55908 8.08926 7.27883 8.3538 6.97874 8.60911C7.22581 9.11773 7.56604 9.61882 8.07232 10.2141C9.1173 11.4084 10.2068 12.3314 11.4057 13.0397C11.5232 13.1076 11.6609 13.1716 11.8067 13.2394C11.841 13.256 11.8758 13.2726 11.9109 13.2894C11.9794 13.3221 12.049 13.3553 12.1186 13.3901L13.3985 12.2034C13.8075 11.8228 14.2855 11.6231 14.7837 11.6231C15.2859 11.6231 15.7598 11.8266 16.1527 12.2071L18.3763 14.283C18.7854 14.6598 19 15.1081 19 15.5753C19 16.0387 18.7894 16.4908 18.3884 16.8789C18.2143 17.0484 18.0361 17.2104 17.8619 17.3649C17.843 17.3819 17.8242 17.3989 17.8054 17.4157C17.5709 17.6266 17.3481 17.827 17.1531 18.0468C17.1511 18.0506 17.148 18.0534 17.145 18.0562C17.142 18.0591 17.1389 18.0619 17.1369 18.0657C16.5213 18.6873 15.7355 19 14.7999 19C14.7189 19 14.6298 18.9962 14.5447 18.9925C13.1555 18.9096 11.912 18.4236 10.9804 18.0129C8.54216 16.9165 6.40765 15.3606 4.63362 13.3901C3.17146 11.755 2.19129 10.2292 1.53514 8.58274C1.26782 7.91212 0.919494 6.88735 1.0167 5.78722C1.08151 5.1053 1.37718 4.51756 1.89562 4.03531L3.27272 2.74305L3.28082 2.73551C3.68585 2.37383 4.16378 2.18168 4.65792 2.18168C5.15206 2.18168 5.62189 2.37383 6.01477 2.73551C6.27804 2.96156 6.53321 3.20269 6.77623 3.43627ZM1.34936 8.6568C2.01586 10.3292 3.01013 11.8746 4.48453 13.5234C6.27726 15.5146 8.43494 17.0876 10.8984 18.1953L10.8998 18.1959C11.8362 18.6087 13.1066 19.107 14.5328 19.1921L14.5359 19.1923C14.6203 19.196 14.7138 19.2 14.7999 19.2C15.7844 19.2 16.6228 18.869 17.279 18.2064L17.2994 18.1858L17.3016 18.1817C17.3042 18.1787 17.307 18.1752 17.3099 18.1714C17.4954 17.9636 17.7075 17.7728 17.9411 17.5627C17.959 17.5466 17.977 17.5304 17.9952 17.514C18.1703 17.3587 18.3507 17.1947 18.5277 17.0224C18.9595 16.6045 19.2 16.1031 19.2 15.5753C19.2 15.0425 18.9542 14.5436 18.5123 14.1364L16.2905 12.0622C15.8646 11.6502 15.3426 11.4232 14.7837 11.4232C14.229 11.4232 13.7038 11.6463 13.2625 12.0567L12.0832 13.1501C12.0534 13.1357 12.0237 13.1216 11.9946 13.1077C11.96 13.0912 11.9262 13.075 11.8938 13.0594L11.891 13.0581C11.7435 12.9894 11.6147 12.9294 11.5065 12.867C10.329 12.1712 9.25608 11.2631 8.22377 10.0835C7.77184 9.55198 7.45905 9.10231 7.22761 8.65865C7.48726 8.43211 7.73246 8.20064 7.9685 7.97783C7.99752 7.95044 8.0264 7.92318 8.05515 7.89607C8.11237 7.84283 8.16949 7.78876 8.22585 7.7354C8.28266 7.6816 8.33891 7.62835 8.39486 7.57631C8.85192 7.15116 9.09656 6.64693 9.09656 6.1263C9.09656 5.60568 8.85192 5.10145 8.39486 4.67629L7.28912 3.64775C7.16313 3.53055 7.03592 3.4122 6.91709 3.2943L6.91482 3.29208C6.67208 3.05876 6.41445 2.81523 6.14764 2.58599C5.7217 2.19493 5.20553 1.98168 4.65792 1.98168C4.10966 1.98168 3.58539 2.1954 3.14761 2.58633L3.1365 2.59661L1.7594 3.88887C1.20679 4.40304 0.887215 5.03574 0.817598 5.7683L0.817477 5.76962C0.715951 6.91862 1.07959 7.98002 1.34936 8.6568ZM2.56392 8.22859C3.17551 9.76575 4.09898 11.1974 5.48013 12.7459C7.15291 14.6033 9.1659 16.0689 11.4584 17.1012C12.2968 17.4741 13.4147 17.9112 14.6176 17.9828C14.6784 17.9865 14.7432 17.9865 14.8039 17.9865C15.4358 17.9865 15.9178 17.7944 16.3268 17.3875C16.578 17.1125 16.8453 16.8676 17.1085 16.634C17.1397 16.6057 17.1705 16.5778 17.2009 16.5503C17.2887 16.471 17.3736 16.3942 17.4567 16.3158C17.5059 16.2695 17.5545 16.2226 17.6027 16.1743V15.976C17.6187 15.9762 17.6366 15.9784 17.6557 15.9839C17.6807 15.9912 17.7094 16.0051 17.7351 16.0287C18.0096 15.6789 17.965 15.3326 17.5986 14.9951L15.3588 12.9116C15.2333 12.7836 15.0267 12.6366 14.7756 12.6366C14.5204 12.6366 14.3017 12.7911 14.164 12.9192L12.7788 14.2077C12.7099 14.2717 12.4993 14.4676 12.1631 14.4676C12.0295 14.4676 11.8999 14.4375 11.7621 14.3735C11.754 14.3697 11.7459 14.365 11.7378 14.3603C11.7297 14.3556 11.7216 14.3509 11.7135 14.3471C11.5961 14.2793 11.4584 14.2152 11.3126 14.1474C11.1506 14.0721 10.9804 13.9929 10.8144 13.895C9.51423 13.1302 8.33559 12.1318 7.21771 10.8508L7.21366 10.847C6.59802 10.1199 6.19299 9.50956 5.90541 8.86154L5.89326 8.82763C5.82036 8.61288 5.75555 8.29641 6.10388 7.9724C6.10649 7.96753 6.1108 7.96424 6.1157 7.96048C6.11839 7.95843 6.12126 7.95623 6.12413 7.95356C6.47651 7.65969 6.80053 7.35829 7.14076 7.03428C7.21892 6.96408 7.29528 6.89222 7.37225 6.81979C7.41094 6.78338 7.44978 6.74683 7.48908 6.71027C7.91841 6.31091 7.91841 5.94169 7.48908 5.54233L6.38335 4.51379C6.31905 4.45212 6.25476 4.39137 6.19096 4.33109C6.12615 4.26985 6.06184 4.2091 5.99857 4.14834C5.7515 3.91099 5.51659 3.6887 5.26952 3.47395L5.25737 3.46265C5.12776 3.34209 4.92119 3.19892 4.66602 3.19892C4.45946 3.19892 4.24884 3.29311 4.05038 3.46642L2.66922 4.75115C2.33305 5.06385 2.15079 5.42931 2.11028 5.87011C2.04953 6.55957 2.18724 7.29047 2.56392 8.22859ZM2.30948 5.88804C2.25249 6.53556 2.37994 7.23365 2.74951 8.15407C3.35057 9.66473 4.25992 11.0773 5.62909 12.6124C7.28301 14.4488 9.27308 15.8977 11.5402 16.9187C12.3739 17.2895 13.4643 17.7138 14.6295 17.7831C14.683 17.7864 14.7419 17.7865 14.8039 17.7865C15.3857 17.7865 15.8147 17.6133 16.1825 17.249C16.4397 16.9677 16.7119 16.7185 16.9749 16.4852C17.0066 16.4564 17.0376 16.4284 17.068 16.4008C17.2009 16.2807 17.3233 16.17 17.4434 16.0508L17.4451 16.0486C17.4555 16.0359 17.4666 16.0256 17.4773 16.0172C17.6523 15.8438 17.7123 15.6982 17.712 15.5796C17.7117 15.459 17.6488 15.3133 17.4631 15.1422L15.2158 13.0518C15.107 12.9408 14.9491 12.8366 14.7756 12.8366C14.598 12.8366 14.4271 12.9476 14.3002 13.0656L12.9135 14.3555C12.8373 14.4264 12.578 14.6676 12.1631 14.6676C11.997 14.6676 11.8388 14.6297 11.6778 14.5548C11.6599 14.5465 11.6438 14.537 11.6373 14.5332C11.6309 14.5294 11.6284 14.5281 11.6284 14.5281L11.6212 14.5247L11.6135 14.5203C11.5052 14.4578 11.3762 14.3976 11.2282 14.3288L11.2247 14.3271C11.0648 14.2528 10.8873 14.1702 10.7128 14.0672C9.3946 13.2918 8.20198 12.2814 7.07389 10.9902L7.06872 10.9854L7.06102 10.9763C6.43746 10.2398 6.02023 9.61334 5.72261 8.94266L5.71962 8.93594L5.70385 8.89193C5.66414 8.77496 5.61832 8.60773 5.64214 8.41629C5.66623 8.22269 5.75873 8.02474 5.95574 7.83718C5.96977 7.82098 5.98247 7.81085 5.98775 7.80664L5.99193 7.80339L5.99585 7.79974C6.34304 7.5102 6.66342 7.21268 7.00283 6.88945L7.00706 6.88542C7.08358 6.8167 7.15701 6.7477 7.23287 6.67631C7.27195 6.63953 7.31169 6.60213 7.35286 6.56383C7.54913 6.38126 7.61108 6.23843 7.61108 6.1263C7.61108 6.01418 7.54913 5.87134 7.35286 5.68877L6.24488 4.65814C6.18113 4.59699 6.11731 4.53665 6.05333 4.4762L6.05209 4.47503C5.98788 4.41436 5.92351 4.35353 5.86005 4.2926C5.61338 4.05564 5.38141 3.8362 5.13831 3.6249L5.13322 3.62047L5.12115 3.60909C5.00573 3.50173 4.84633 3.39892 4.66602 3.39892C4.52265 3.39892 4.35774 3.46423 4.18421 3.61507L2.80544 4.89759C2.50402 5.17797 2.34538 5.49824 2.30948 5.88804Z" fill="#E5E5E5"/>
<path d="M10.7145 5.86004C11.7099 6.04978 12.6141 6.58451 13.3359 7.40385C14.0577 8.22319 14.525 9.24952 14.6959 10.3793C14.7377 10.664 14.9542 10.8623 15.2012 10.8623C15.2316 10.8623 15.2582 10.858 15.2886 10.8537C15.5697 10.802 15.7558 10.5001 15.7102 10.181C15.5051 8.81398 14.9352 7.56772 14.0653 6.5802C13.1953 5.59268 12.0974 4.94583 10.8931 4.71297C10.612 4.66122 10.3498 4.87252 10.3005 5.18732C10.2511 5.50212 10.4334 5.80829 10.7145 5.86004Z" fill="#CCCCCC"/>
<path fill-rule="evenodd" clip-rule="evenodd" d="M15.2886 10.8537C15.2855 10.8541 15.2825 10.8546 15.2795 10.855C15.2528 10.8588 15.2285 10.8623 15.2012 10.8623C14.9542 10.8623 14.7377 10.664 14.6959 10.3793C14.525 9.24952 14.0577 8.22319 13.3359 7.40385C12.6141 6.58451 11.7099 6.04978 10.7145 5.86004C10.4334 5.80829 10.2511 5.50212 10.3005 5.18732C10.3498 4.87252 10.612 4.66122 10.8931 4.71297C12.0974 4.94583 13.1953 5.59268 14.0653 6.5802C14.9352 7.56772 15.5051 8.81398 15.7102 10.181C15.7558 10.5001 15.5697 10.802 15.2886 10.8537ZM10.6777 6.05661C10.2659 5.9804 10.0409 5.55161 10.1029 5.15632C10.1661 4.75345 10.5158 4.44016 10.9293 4.51627L10.9311 4.5166C12.1821 4.75851 13.3185 5.42993 14.2153 6.44799C15.112 7.46582 15.6975 8.74818 15.908 10.1513L15.9082 10.1527C15.9654 10.5532 15.7345 10.975 15.3248 11.0504L15.3167 11.0519C15.314 11.0523 15.3111 11.0525 15.3081 11.053C15.2825 11.0567 15.2438 11.0623 15.2012 11.0623C14.84 11.0623 14.5522 10.7757 14.4981 10.4089C14.3325 9.315 13.8807 8.32488 13.1858 7.53606C12.4908 6.74714 11.6253 6.2374 10.6777 6.05661Z" fill="#CCCCCC"/>
<path d="M18.9664 10.013C18.6282 7.76195 17.6937 5.71361 16.2576 4.08355C14.8216 2.4535 13.0171 1.39267 11.034 1.00887C10.7567 0.952811 10.4945 1.16843 10.4451 1.48323C10.3995 1.80234 10.5857 2.09989 10.8668 2.15595C12.6372 2.49662 14.2518 3.44964 15.5358 4.90289C16.8199 6.36045 17.6557 8.19319 17.9558 10.2027C17.9976 10.4873 18.2142 10.6857 18.4611 10.6857C18.4915 10.6857 18.5181 10.6814 18.5485 10.6771C18.8258 10.6296 19.0157 10.3278 18.9664 10.013Z" fill="#CCCCCC"/>
<path fill-rule="evenodd" clip-rule="evenodd" d="M10.4451 1.48323C10.4945 1.16843 10.7567 0.952811 11.034 1.00887C13.0171 1.39267 14.8216 2.4535 16.2576 4.08355C17.6937 5.71361 18.6282 7.76195 18.9664 10.013C19.0157 10.3278 18.8258 10.6296 18.5485 10.6771C18.5454 10.6775 18.5424 10.6779 18.5394 10.6784C18.5127 10.6822 18.4884 10.6857 18.4611 10.6857C18.2142 10.6857 17.9976 10.4873 17.9558 10.2027C17.6557 8.19319 16.8199 6.36045 15.5358 4.90289C14.2518 3.44964 12.6372 2.49662 10.8668 2.15595C10.5857 2.09989 10.3995 1.80234 10.4451 1.48323ZM19.1641 9.98271C19.2263 10.382 18.989 10.8046 18.5822 10.8742L18.5766 10.8752C18.5739 10.8756 18.571 10.8759 18.568 10.8763C18.5424 10.8801 18.5037 10.8857 18.4611 10.8857C18.0999 10.8857 17.812 10.599 17.758 10.232C17.4632 8.25875 16.6431 6.46228 15.3858 5.03514C14.1284 3.6122 12.5522 2.68394 10.829 2.35234L10.8277 2.35209C10.4228 2.27134 10.1895 1.85808 10.2471 1.45494L10.2475 1.45223C10.31 1.0541 10.6574 0.729224 11.0728 0.812672C13.1022 1.20563 14.9449 2.2909 16.4077 3.95134C17.8704 5.61162 18.8205 7.69588 19.1641 9.98271Z" fill="#E5E5E5"/>
</svg>
