<svg width="150" height="74" viewBox="0 0 150 74" fill="none" xmlns="http://www.w3.org/2000/svg">
<path fill-rule="evenodd" clip-rule="evenodd" d="M114.032 17.1847C110.702 15.3197 98.1794 0 78.9964 0.26643V15.8526C110.968 18.2504 109.902 57.4156 78.9964 58.7478V73.4014H150V0C142.806 0.399645 135.48 2.53108 129.085 5.3286C121.625 8.52575 119.094 11.5897 114.165 17.0515L114.032 17.1847Z" fill="white"/>
<path fill-rule="evenodd" clip-rule="evenodd" d="M0 73.2686L71.0036 73.4018V58.7481C65.1421 57.8156 58.881 57.416 54.4849 52.8867C50.0888 48.4906 47.6909 44.0945 47.5577 37.4338C47.4245 30.773 50.0888 26.2437 54.4849 21.9808C59.2806 17.3183 64.7425 16.7854 71.0036 15.5865V0.133571C64.6092 -0.399288 56.4831 2.66465 51.0213 5.59538C42.0959 10.3911 41.5631 13.0554 36.1012 17.0519C34.9023 16.1194 34.103 14.5208 33.0373 13.4551C26.2433 5.99503 8.9254 -0.266073 0 0.133571V73.2686Z" fill="white"/>
<path fill-rule="evenodd" clip-rule="evenodd" d="M71.0036 50.7549V23.8455C63.0107 23.0462 56.2167 29.0408 56.0835 37.0337C55.9503 45.0266 62.8774 51.5542 71.0036 50.6217V50.7549Z" fill="white"/>
<path fill-rule="evenodd" clip-rule="evenodd" d="M78.8632 50.8883C98.7123 50.8883 99.1119 23.9789 78.8632 23.8457V50.8883Z" fill="white"/>
</svg>
