<svg width="150" height="74" viewBox="0 0 150 74" fill="none" xmlns="http://www.w3.org/2000/svg">
<path fill-rule="evenodd" clip-rule="evenodd" d="M114.032 17.1847C110.702 15.3197 98.1794 0 78.9964 0.26643V15.8526C110.968 18.2504 109.902 57.4156 78.9964 58.7478V73.4014H150V0C142.806 0.399645 135.48 2.53108 129.085 5.3286C121.625 8.52575 119.094 11.5897 114.165 17.0515L114.032 17.1847Z" fill="#A64533"/>
<path fill-rule="evenodd" clip-rule="evenodd" d="M0 73.2685L71.0036 73.4017V58.7481C65.1421 57.8156 58.881 57.416 54.4849 52.8867C50.0888 48.4906 47.6909 44.0945 47.5577 37.4337C47.4245 30.773 50.0888 26.2437 54.4849 21.9808C59.2806 17.3183 64.7425 16.7854 71.0036 15.5865V0.133541C64.6092 -0.399319 56.4831 2.66462 51.0213 5.59535C42.0959 10.3911 41.5631 13.0554 36.1012 17.0518C34.9023 16.1193 34.103 14.5208 33.0373 13.455C26.2433 5.995 8.9254 -0.266104 0 0.133541V73.2685Z" fill="#A64533"/>
<path fill-rule="evenodd" clip-rule="evenodd" d="M71.0036 50.7549V23.8455C63.0107 23.0462 56.2167 29.0409 56.0835 37.0338C55.9503 45.0266 62.8774 51.5542 71.0036 50.6217V50.7549Z" fill="#A64533"/>
<path fill-rule="evenodd" clip-rule="evenodd" d="M78.8632 50.8881C98.7123 50.8881 99.1119 23.9787 78.8632 23.8455V50.8881Z" fill="#A64533"/>
</svg>
