<svg width="18" height="14" viewBox="0 0 18 14" fill="none" xmlns="http://www.w3.org/2000/svg">
<path d="M16.418 0.787018H1.58203C0.707941 0.787018 0 1.49935 0 2.36905V11.8612C0 12.7361 0.713145 13.4433 1.58203 13.4433H16.418C17.2847 13.4433 18 12.7391 18 11.8612V2.36905C18 1.5009 17.2949 0.787018 16.418 0.787018ZM16.1964 1.84171C15.8732 2.16321 10.3107 7.69638 10.1187 7.88742C9.81984 8.18625 9.42258 8.35078 9 8.35078C8.57742 8.35078 8.18016 8.18621 7.88034 7.88644C7.75118 7.75794 2.25011 2.28587 1.80359 1.84171H16.1964ZM1.05469 11.6466V2.58438L5.61227 7.11795L1.05469 11.6466ZM1.80425 12.3886L6.36005 7.86176L7.13556 8.63319C7.63358 9.13121 8.29571 9.40547 9 9.40547C9.70429 9.40547 10.3664 9.13121 10.8635 8.63417L11.64 7.86176L16.1957 12.3886H1.80425ZM16.9453 11.6466L12.3877 7.11795L16.9453 2.58438V11.6466Z" fill="#CCCCCC"/>
</svg>
