<svg width="29" height="16" viewBox="0 0 29 16" fill="none" xmlns="http://www.w3.org/2000/svg">
<path d="M27.7919 14.271C27.7165 14.1448 27.2503 13.1317 25.0068 11.0494C22.6581 8.86903 22.9736 9.22309 25.8025 5.45294C27.5255 3.15684 28.2143 1.75465 27.9987 1.15521C27.7937 0.583812 26.5264 0.734548 26.5264 0.734548L22.3128 0.759087C22.3128 0.759087 22.0008 0.717021 21.7677 0.855488C21.5416 0.992202 21.3961 1.3077 21.3961 1.3077C21.3961 1.3077 20.7283 3.08498 19.838 4.59584C17.9608 7.78409 17.2088 7.95235 16.9021 7.75429C16.1887 7.29332 16.3675 5.89989 16.3675 4.91134C16.3675 1.82125 16.8355 0.532983 15.4543 0.199961C14.9951 0.0895384 14.6586 0.0159232 13.486 0.00365397C11.9822 -0.0121207 10.7079 0.00891219 9.98753 0.361214C9.50728 0.596082 9.13745 1.12015 9.36355 1.14995C9.64224 1.18676 10.2732 1.31997 10.608 1.77568C11.0409 2.36285 11.0252 3.68442 11.0252 3.68442C11.0252 3.68442 11.274 7.32136 10.445 7.77357C9.87535 8.08381 9.09538 7.45106 7.42151 4.55728C6.56442 3.07621 5.9159 1.4374 5.9159 1.4374C5.9159 1.4374 5.79146 1.13242 5.56886 0.969416C5.29894 0.771356 4.92034 0.708257 4.92034 0.708257L0.913571 0.732796C0.913571 0.732796 0.31238 0.750324 0.091534 1.01148C-0.104773 1.2446 0.0757593 1.72485 0.0757593 1.72485C0.0757593 1.72485 3.21317 9.06359 6.76423 12.7636C10.0226 16.1552 13.7209 15.9326 13.7209 15.9326H15.3965C15.3965 15.9326 15.903 15.8765 16.1607 15.5978C16.3991 15.3419 16.3903 14.8617 16.3903 14.8617C16.3903 14.8617 16.357 12.6129 17.4016 12.2816C18.4305 11.9556 19.7521 14.455 21.1525 15.4173C22.2112 16.1447 23.0157 15.9852 23.0157 15.9852L26.7613 15.9326C26.7613 15.9326 28.7209 15.8117 27.7919 14.271Z" fill="#037CD1"/>
</svg>
