<svg width="20" height="20" viewBox="0 0 20 20" fill="none" xmlns="http://www.w3.org/2000/svg">
<path d="M14.046 11.5464C14.0098 11.5276 12.656 10.8046 12.4154 10.7107C12.3172 10.6725 12.212 10.6351 12.1001 10.6351C11.9173 10.6351 11.7637 10.7339 11.6441 10.928C11.5089 11.146 11.0995 11.665 10.973 11.82C10.9565 11.8405 10.9339 11.8649 10.9204 11.8649C10.9083 11.8649 10.6988 11.7713 10.6354 11.7415C9.18309 11.0573 8.08076 9.41213 7.92961 9.13469C7.90802 9.0948 7.90712 9.07669 7.90694 9.07669C7.91224 9.05557 7.96108 9.00248 7.98628 8.97508C8.06002 8.89596 8.13991 8.79167 8.21721 8.69078C8.2538 8.64298 8.29046 8.59512 8.32646 8.55C8.4386 8.40851 8.48852 8.29866 8.5464 8.17141L8.57673 8.10531C8.71806 7.8008 8.59735 7.54383 8.55834 7.46086C8.52633 7.39142 7.95469 5.89524 7.89392 5.73805C7.74777 5.35874 7.55465 5.18213 7.28629 5.18213C7.26138 5.18213 7.28629 5.18213 7.18186 5.1869C7.0547 5.19272 6.36224 5.29159 6.05607 5.50089C5.7314 5.72288 5.18213 6.43049 5.18213 7.67493C5.18213 8.79494 5.83751 9.85244 6.1189 10.2546C6.12589 10.2648 6.13873 10.2854 6.15736 10.3149C7.23498 12.0216 8.57836 13.2865 9.94019 13.8765C11.2513 14.4444 11.8721 14.5101 12.225 14.5101C12.2251 14.5101 12.2251 14.5101 12.2251 14.5101C12.3734 14.5101 12.4921 14.4974 12.5969 14.4863L12.6633 14.4794C13.1162 14.4359 14.1115 13.8765 14.3379 13.1942C14.5163 12.6568 14.5633 12.0696 14.4447 11.8565C14.3634 11.7116 14.2233 11.6387 14.046 11.5464Z" fill="#397A11"/>
<path d="M10.021 0C4.68765 0 0.348693 4.30635 0.348693 9.59956C0.348693 11.3116 0.806859 12.9874 1.67479 14.4541L0.0135396 19.3545C-0.0174055 19.4458 0.00561153 19.5469 0.073192 19.6157C0.121975 19.6655 0.188149 19.6923 0.25573 19.6923C0.281624 19.6923 0.30771 19.6884 0.333156 19.6803L5.44293 18.0566C6.84122 18.8037 8.42159 19.198 10.021 19.198C15.3538 19.1981 19.6923 14.8922 19.6923 9.59956C19.6923 4.30635 15.3538 0 10.021 0ZM10.021 17.1984C8.51596 17.1984 7.05828 16.7638 5.80526 15.9416C5.76312 15.9139 5.71421 15.8998 5.66498 15.8998C5.63896 15.8998 5.61287 15.9037 5.58749 15.9118L3.02781 16.7254L3.85412 14.2876C3.88084 14.2087 3.86748 14.1217 3.81825 14.0544C2.86407 12.7506 2.35968 11.2102 2.35968 9.59956C2.35968 5.40899 5.7965 1.99966 10.0209 1.99966C14.2448 1.99966 17.6812 5.40899 17.6812 9.59956C17.6813 13.7896 14.2449 17.1984 10.021 17.1984Z" fill="#397A11"/>
</svg>
